<?xml version="1.0" encoding="UTF-8"?>
<svg xmlns="http://www.w3.org/2000/svg" viewBox="0 0 250 250">
  <path fill="#FF9900" d="M73.808 129.186c0 3.975.432 7.258 1.081 9.613.865 2.57 1.945 5.139 3.458 7.709 0.541 0.865 0.757 1.73 0.757 2.354 0 0.973-0.649 1.945-1.945 2.895l-6.376 4.317c-0.865 0.541-1.73 0.865-2.354 0.865-0.973 0-1.945-0.432-2.787-1.297-1.297-1.405-2.462-2.895-3.242-4.317-1.189-2.138-2.138-4.317-3.026-6.916-7.709 9.072-17.321 13.605-27.363 13.605-7.816 0-14.059-2.246-18.591-6.808-4.533-4.533-6.808-10.694-6.808-18.51 0-8.358 2.895-15.059 8.902-20.198s13.713-7.709 23.434-7.709c3.242 0 6.592 0.216 10.153 0.865 3.566 0.541 7.258 1.514 11.126 2.462v-7.041c0-7.492-1.514-12.631-4.533-15.49-3.134-2.895-8.358-4.317-15.707-4.317-3.35 0-6.808 0.433-10.37 1.189-3.566 0.757-6.993 1.838-10.37 3.026-1.514 0.649-2.678 0.973-3.458 1.189-0.757 0.216-1.297 0.216-1.838 0.216-1.622 0-2.354-1.189-2.354-3.566v-5.571c0-1.838 0.216-3.134 0.865-3.892 0.541-0.757 1.73-1.514 3.35-2.246 4.317-2.246 9.289-3.975 15.06-5.355s11.775-2.138 18.185-2.138c13.821 0 23.866 3.134 30.24 9.505 6.376 6.376 9.505 15.924 9.505 28.988v38.273zm-37.731 17.97c3.134 0 6.376-0.541 9.937-1.83 3.566-1.189 6.7-3.458 9.397-6.484 1.622-1.945 2.787-4.101 3.35-6.593 0.649-2.57 0.973-5.571 0.973-9.072v-4.317c-2.895-0.757-5.895-1.405-9.072-1.838-3.134-0.432-6.267-0.649-9.289-0.649-6.7 0-11.559 1.297-14.778 3.892-3.242 2.678-4.749 6.376-4.749 11.126 0 4.533 1.189 7.925 3.566 10.153 2.354 2.354 5.788 3.458 10.694 3.458zM129.82 139.123c-1.622 0-2.678-0.324-3.458-1.081-0.757-0.649-1.405-2.246-1.945-4.425L103.566 57.02c-0.541-2.246-0.865-3.675-0.865-4.533 0-1.838 0.973-2.787 2.787-2.787h11.342c2.246 0 3.675 0.324 4.425 1.081 0.757 0.649 1.405 2.246 1.73 4.425l14.707 58.285 13.605-58.285c0.324-2.138 0.973-3.675 1.73-4.425 0.757-0.649 2.246-1.081 4.317-1.081h9.289c2.138 0 3.675 0.324 4.425 1.081 0.757 0.649 1.514 2.246 1.73 4.425l13.821 59.042 15.166-59.042c0.433-2.138 0.973-3.675 1.73-4.425 0.757-0.649 2.246-1.081 4.317-1.081h10.802c1.838 0 2.895 0.973 2.895 2.787 0 0.541-0.108 1.081-0.216 1.622-0.108 0.649-0.324 1.405-0.649 2.355l-22.353 76.687c-0.541 2.138-1.189 3.675-1.945 4.425-0.757 0.757-1.945 1.081-3.566 1.081h-9.937c-2.138 0-3.675-0.324-4.317-0.973-0.757-0.649-1.405-2.138-1.73-4.209l-13.605-56.556-13.389 56.447c-0.433 2.138-0.973 3.566-1.73 4.317-0.757 0.649-2.354 0.973-4.425 0.973h-9.937zM233.896 142.149c-5.788 0-11.559-0.649-17.105-2.062-5.571-1.405-9.937-2.895-12.739-4.641-1.838-1.081-3.026-2.246-3.458-3.242-0.433-0.973-0.649-2.138-0.649-3.134v-5.788c0-2.354 0.973-3.566 2.678-3.566 0.649 0 1.405 0.108 2.062 0.324 0.649 0.216 1.622 0.649 2.57 0.973 3.458 1.514 7.258 2.678 11.342 3.458 4.101 0.865 8.142 1.297 12.307 1.297 6.484 0 11.559-1.189 15.058-3.458 3.458-2.246 5.355-5.571 5.355-9.829 0-2.895-0.973-5.355-2.895-7.258-1.945-1.945-5.571-3.675-10.802-5.355l-15.599-4.858c-7.925-2.462-13.713-6.052-17.214-10.91-3.458-4.749-5.246-10.045-5.246-15.708 0-4.533 0.973-8.466 2.895-11.883 1.945-3.35 4.533-6.268 7.816-8.574 3.242-2.354 6.916-4.101 11.234-5.355 4.317-1.189 8.79-1.73 13.39-1.73 2.354 0 4.749 0.108 7.15 0.433 2.462 0.324 4.749 0.757 7.041 1.189 2.246 0.541 4.317 1.081 6.376 1.73 2.062 0.649 3.675 1.297 4.858 1.945 1.622 0.865 2.787 1.73 3.458 2.678 0.649 0.757 0.973 1.945 0.973 3.242v5.355c0 2.355-0.973 3.675-2.678 3.675-0.973 0-2.462-0.541-4.317-1.622-6.484-2.895-13.821-4.317-21.96-4.317-5.896 0-10.453 0.973-13.605 2.895-3.134 2.062-4.749 4.966-4.749 9.072 0 2.895 1.081 5.355 3.134 7.258 2.138 1.945 6.052 3.783 11.667 5.571l15.275 4.858c7.816 2.462 13.389 5.896 16.631 10.261 3.242 4.425 4.858 9.613 4.858 15.599 0 4.533-0.865 8.683-2.787 12.307-1.838 3.675-4.425 6.808-7.816 9.397-3.458 2.462-7.492 4.425-12.307 5.788-4.858 1.189-10.045 1.73-15.599 1.73z"/>
</svg>
