<?xml version="1.0" encoding="UTF-8"?>
<svg xmlns="http://www.w3.org/2000/svg" viewBox="0 0 300 120" width="300" height="120">
  <rect width="300" height="120" rx="20" fill="#f8f9fa"/>
  <g fill="#0091EA">
    <!-- M -->
    <path d="M40 35h10v50H40V55l-8 15h-4l-8-15v30H10V35h10l10 20 10-20z"/>
    <!-- I -->
    <path d="M65 35h10v50H65z"/>
    <!-- C -->
    <path d="M110 60c0-14-10-25-22.5-25S65 46 65 60s10 25 22.5 25c8 0 15-4 19-10l-8-5c-2 3-6 5-11 5-8 0-14-7-14-15s6-15 14-15c5 0 9 2 11 5l8-5c-4-6-11-10-19-10z"/>
    <!-- A -->
    <path d="M142 35l15 50h-10l-2.5-10h-15l-2.5 10h-10l15-50h10zm-2.5 30l-5-20-5 20h10z"/>
  </g>
  <g fill="#0091EA">
    <!-- Dots after MI-->
    <circle cx="85" cy="60" r="5"/>
    <circle cx="95" cy="60" r="5"/>
  </g>
</svg>
