<?xml version="1.0" encoding="UTF-8"?>
<svg width="600" height="280" viewBox="0 0 600 280" xmlns="http://www.w3.org/2000/svg">
  <g fill="none" fill-rule="evenodd">
    <path d="M289.997 125.174c0-17.081 13.301-30.941 29.668-30.941 16.367 0 29.668 13.86 29.668 30.941 0 17.082-13.301 30.942-29.668 30.942-16.367 0-29.668-13.86-29.668-30.942" fill="#0D8CF4"/>
    <path d="M268.662 50.756v45.372h-20.256v-24.523H214.43v114.974h33.976v-24.497h20.256v45.348h-76.624V50.756h76.624zm131.312 78Z" fill="#0D8CF4"/>
    <path d="M372.204 125.173c0-31.351 25.245-56.742 56.394-56.742 1.812 0 3.625.116 5.37.247v24.169c-1.761-.238-3.575-.354-5.37-.354-16.366 0-29.668 13.86-29.668 30.941 0 17.082 13.302 30.942 29.668 30.942 1.847 0 3.656-.122 5.37-.363v24.153c-1.763.16-3.575.252-5.37.252-31.15 0-56.394-25.092-56.394-56.742v-.503Z" fill="#0D8CF4"/>
    <path d="M493.875 143.426h46.126l9.673 31h28.186L536.03 70.756h-34.308l-41.826 103.671h28.188l9.673-31h-3.882Zm37.148-22.629h-28.415l14.207-35.065 14.208 35.065Zm-13.92-70.04h138.54v22.628h-138.54V50.756Z" fill="#0D8CF4"/>
    <path d="M140.533 50.756 97.973 93.085 55.425 50.756H25.74v157.27h25.816v-103.82l46.416 46.007 46.415-46.008v103.82h25.816V50.757h-29.67Z" fill="#0D8CF4"/>
  </g>
</svg>
