<?xml version="1.0" encoding="UTF-8"?>
<svg width="228" height="80" viewBox="0, 0, 228, 80" version="1.1" xmlns="http://www.w3.org/2000/svg">
  <g fill="#0D8CF0">
    <path d="M107.322 40.2094C107.322 34.8508 111.504 30.2714 117.151 30.2714C122.798 30.2714 126.979 34.8508 126.979 40.2094C126.979 45.5681 122.798 50.1475 117.151 50.1475C111.504 50.1475 107.322 45.5681 107.322 40.2094Z" />
    <path d="M96.6502 15.3593V29.7599H90.2503V21.9985H78.8132V58.4191H90.2503V50.6611H96.6502V65.0582H72.4132V15.3593H96.6502Z" />
    <path d="M138.067 40.2094C138.067 30.2714 146.037 22.2825 156.037 22.2825C156.612 22.2825 157.187 22.3192 157.744 22.3742V30.0425C157.186 29.9674 156.618 29.9291 156.037 29.9324C150.39 29.9324 146.209 34.5118 146.209 39.8704C146.209 45.2291 150.39 49.8085 156.037 49.8085C156.619 49.8078 157.188 49.7742 157.744 49.7077V57.395C157.185 57.446 156.612 57.4792 156.037 57.4792C146.037 57.4792 138.067 49.4903 138.067 40.2094Z" />
    <path d="M183.678 46.0837H198.22L201.277 55.9222H210.17L196.367 22.5845H185.531L171.727 55.9222H180.621L183.678 46.0837ZM195.433 38.856H186.466L190.949 27.8358L195.433 38.856Z" />
    <path d="M177.887 15.3593H221.607V22.5845H177.887V15.3593Z" />
    <path d="M51.1948 15.3593L35.9732 30.5475L20.7551 15.3593H9.3145V65.0582H17.4574V32.0635L35.9732 50.5405L54.4925 32.0635V65.0582H62.6354V15.3593H51.1948Z" />
  </g>
</svg>
