<?xml version="1.0" encoding="UTF-8"?>
<svg xmlns="http://www.w3.org/2000/svg" viewBox="0 0 250 250">
  <circle cx="125" cy="125" r="125" fill="#0D6EB5"/>
  <g fill="#FFFFFF">
    <path d="M44.975 125c0-44.198 35.827-80.025 80.025-80.025S205.025 80.802 205.025 125h15c0-52.367-42.658-95.025-95.025-95.025S29.975 72.633 29.975 125h15z"/>
    <path d="M68.5 125c0-31.154 25.346-56.5 56.5-56.5s56.5 25.346 56.5 56.5h15c0-39.325-31.175-71.5-71.5-71.5S54 85.675 54 125h14.5z"/>
    <path d="M92 125c0-18.113 14.887-33 33-33s33 14.887 33 33h15c0-26.495-21.505-48-48-48s-48 21.505-48 48h15z"/>
    <path d="M125 159c18.778 0 34-15.222 34-34h-68c0 18.778 15.222 34 34 34z"/>
    <text x="50" y="200" font-family="Arial, sans-serif" font-size="45" font-weight="bold">RGPD</text>
  </g>
</svg>
